<?xml version="1.0" encoding="UTF-8"?>
<svg xmlns="http://www.w3.org/2000/svg" id="Layer_1" data-name="Layer 1" viewBox="0 0 24 24">
  <path d="M19.5,0H4.5C2.019,0,0,2.019,0,4.5v15c0,2.481,2.019,4.5,4.5,4.5h15c2.481,0,4.5-2.019,4.5-4.5V4.5c0-2.481-2.019-4.5-4.5-4.5ZM4.5,1h15c1.758,0,3.204,1.308,3.449,3H1.051c.245-1.692,1.691-3,3.449-3Zm15,22H4.5c-1.93,0-3.5-1.57-3.5-3.5V5H23v14.5c0,1.93-1.57,3.5-3.5,3.5ZM4,8.5c0-.276,.224-.5,.5-.5h4c.276,0,.5,.224,.5,.5s-.224,.5-.5,.5H4.5c-.276,0-.5-.224-.5-.5Zm10,5c0,.276-.224,.5-.5,.5H7.5c-.276,0-.5-.224-.5-.5s.224-.5,.5-.5h6c.276,0,.5,.224,.5,.5Zm0,5c0,.276-.224,.5-.5,.5H4.5c-.276,0-.5-.224-.5-.5s.224-.5,.5-.5H13.5c.276,0,.5,.224,.5,.5Zm5-1.929v-6.071c0-1.378-1.121-2.5-2.5-2.5h-1.571c-.224-.86-1-1.5-1.929-1.5-1.103,0-2,.897-2,2s.897,2,2,2c.929,0,1.705-.64,1.929-1.5h1.571c.827,0,1.5,.673,1.5,1.5v6.071c-.86,.224-1.5,1-1.5,1.929,0,1.103,.897,2,2,2s2-.897,2-2c0-.929-.64-1.705-1.5-1.929Zm-6-7.071c-.552,0-1-.449-1-1s.448-1,1-1,1,.449,1,1-.448,1-1,1Zm5.5,10c-.552,0-1-.448-1-1s.448-1,1-1,1,.448,1,1-.448,1-1,1Z"/>
</svg>
